<?xml version="1.0" encoding="utf-8"?>
<!-- Generator: Adobe Illustrator 18.1.1, SVG Export Plug-In . SVG Version: 6.00 Build 0)  -->
<svg version="1.1" id="Layer_1" xmlns="http://www.w3.org/2000/svg" xmlns:xlink="http://www.w3.org/1999/xlink" x="0px" y="0px"
	 width="300px" height="134.4px" viewBox="0 0 300 134.4" enable-background="new 0 0 300 134.4" xml:space="preserve">
<path fill="#050606" d="M138.8,57.6c3.5,3.5,9.8,5.3,19,5.3c5.2,0,9.5-0.8,12.9-2.3c3.4-1.5,6.1-3.7,8-6.6c1.9-2.9,2.9-6.1,2.9-9.5
	c0-2.9-0.7-5.6-2.1-7.9c-1.4-2.4-3.7-4.4-6.8-6c-3.1-1.6-8.3-3.2-15.6-4.7c-2.9-0.6-4.8-1.3-5.6-2c-0.8-0.7-1.2-1.5-1.2-2.3
	c0-1.2,0.5-2.2,1.5-3c1-0.8,2.4-1.2,4.4-1.2c2.3,0,4.2,0.5,5.5,1.6c1.3,1.1,2.2,2.9,2.6,5.3l15.6-0.9c-0.7-5.6-2.8-9.6-6.4-12.2
	c-3.6-2.6-8.8-3.8-15.7-3.8c-5.6,0-10,0.7-13.2,2.1c-3.2,1.4-5.6,3.3-7.2,5.8c-1.6,2.5-2.4,5.1-2.4,7.8c0,4.2,1.6,7.7,4.7,10.4
	c3.1,2.7,8.3,4.9,15.6,6.5c4.4,1,7.3,2,8.5,3.1c1.2,1.1,1.8,2.3,1.8,3.7c0,1.5-0.6,2.8-1.9,3.9c-1.3,1.1-3.1,1.7-5.5,1.7
	c-3.2,0-5.6-1.1-7.3-3.3c-1.1-1.3-1.7-3.3-2.1-5.9l-15.8,1C133.3,49.6,135.3,54.1,138.8,57.6z"/>
<path fill="#050606" d="M199.1,61.9h18L237,8.3h-16.8l-11.9,38.6L196.2,8.3h-17.3L199.1,61.9z"/>
<path fill="#050606" d="M238.8,61.9h15.6V32.5l20.1,29.5h15.6V8.3h-15.6V38L254.3,8.3h-15.5V61.9z"/>
<path fill="#050606" d="M79.9,127.7v-21.8h1.5c1.5,0,2.9,0.4,4.1,1.2c0.9,0.6,1.9,2,3,4.1l8.9,16.4h18.7l-8-15.6
	c-0.4-0.8-1.2-1.9-2.3-3.3c-1.2-1.4-2-2.4-2.7-2.8c-0.9-0.7-2.3-1.3-4.3-2c2.5-0.6,4.4-1.3,5.8-2.1c2.2-1.3,4-3.1,5.2-5.3
	c1.3-2.2,1.9-4.7,1.9-7.7c0-3.4-0.8-6.3-2.5-8.7c-1.7-2.4-3.8-4-6.6-4.9C100,74.4,96,74,90.9,74H63.3v53.7H79.9z M79.9,84.8h7.3
	c3,0,5.1,0.5,6.2,1.4c1.1,0.9,1.6,2.3,1.6,4c0,1.2-0.3,2.2-1,3.1c-0.7,0.9-1.6,1.5-2.7,1.7c-2.2,0.5-3.6,0.7-4.4,0.7h-7V84.8z"/>
<path fill="#050606" d="M126,127.7h16.3l9.4-33.8l9.4,33.8h16.3L189.2,74h-15.7l-5.7,30l-8.3-30h-15.7l-8.3,30.1L129.9,74h-15.8
	L126,127.7z"/>
<path fill="#050606" d="M192,127.7h15.6V98.2l20.1,29.5h15.6V74h-15.6v29.7L207.5,74H192V127.7z"/>
<path fill="#050606" d="M251.7,123.3c3.5,3.5,9.8,5.3,19,5.3c5.2,0,9.5-0.8,12.9-2.3c3.4-1.5,6.1-3.7,8-6.6c1.9-2.9,2.9-6.1,2.9-9.5
	c0-2.9-0.7-5.6-2.1-7.9c-1.4-2.4-3.7-4.4-6.8-6c-3.1-1.6-8.3-3.2-15.6-4.7c-2.9-0.6-4.8-1.3-5.6-2c-0.8-0.7-1.2-1.5-1.2-2.3
	c0-1.2,0.5-2.2,1.5-3c1-0.8,2.4-1.2,4.4-1.2c2.3,0,4.2,0.5,5.5,1.6c1.3,1.1,2.2,2.9,2.6,5.3l15.6-0.9c-0.7-5.6-2.8-9.6-6.4-12.2
	c-3.6-2.6-8.8-3.8-15.7-3.8c-5.6,0-10,0.7-13.2,2.1c-3.2,1.4-5.6,3.3-7.2,5.8c-1.6,2.5-2.4,5.1-2.4,7.8c0,4.2,1.6,7.7,4.7,10.4
	c3.1,2.7,8.3,4.9,15.6,6.5c4.4,1,7.3,2,8.5,3.1c1.2,1.1,1.8,2.3,1.8,3.7c0,1.5-0.6,2.8-1.9,3.9c-1.3,1.1-3.1,1.7-5.5,1.7
	c-3.2,0-5.6-1.1-7.3-3.3c-1.1-1.3-1.7-3.3-2.1-5.9l-15.8,1C246.2,115.3,248.2,119.8,251.7,123.3z"/>
<path fill="#705823" d="M23.6,113.6c1.6,1.8,4,2.7,7.2,2.7c3.3,0,5.8-1.1,7.6-3.3c1.8-2.2,2.7-6.3,2.7-12.2c0-4.8-0.8-8.3-2.3-10.6
	c-2-3-4.9-4.5-8.6-4.5c-1.7,0-3.2,0.3-4.5,1c-1.3,0.7-2.5,1.7-3.4,2.9c-0.6,0.8-1.1,2-1.6,3.6L6.1,89.9c1.9-5.7,4.8-9.9,8.6-12.6
	c3.9-2.7,9.2-4.1,15.9-4.1c8.6,0,15.3,2.4,20,7.2s7.1,11.6,7.1,20.5c0,6.7-1.3,12.1-4,16.4c-2.7,4.3-5.9,7.3-9.6,8.9
	c-3.7,1.7-8.5,2.5-14.3,2.5c-4.8,0-8.8-0.7-11.9-2.1c-3.1-1.4-5.7-3.5-7.8-6.2c-2.1-2.7-3.6-6.1-4.6-10.2l14.5-4.4
	C20.8,109.2,22,111.8,23.6,113.6z"/>
</svg>
