<?xml version="1.0" encoding="utf-8"?>
<!-- Generator: Adobe Illustrator 18.1.1, SVG Export Plug-In . SVG Version: 6.00 Build 0)  -->
<svg version="1.1" id="Layer_1" xmlns="http://www.w3.org/2000/svg" xmlns:xlink="http://www.w3.org/1999/xlink" x="0px" y="0px"
	 width="120.5px" height="92.3px" viewBox="0 0 120.5 92.3" enable-background="new 0 0 120.5 92.3" xml:space="preserve">
<path fill-rule="evenodd" clip-rule="evenodd" fill="#705823" d="M102.4,35c-4.5,6.1-17.9,23.3-12-5l0.3-0.8
	c-2.1,0.1-4.1-0.9-5.3-2.5c-1.5,4.6-9.5,28.8-8.4-0.4l0.3-2.3c-0.1,0.1-0.3,0.1-0.4,0.2c-2,0.7-4.2,0.3-5.8-1
	c-0.2,1.4-0.3,2.9-0.4,3.6c0,0.2,0,0.5-0.1,0.8c-0.7,3.3-2.1,10.1-3.9,13.7c-0.5,1-0.9,1.6-1.2,1.8c0,0-0.1-0.2-0.4-0.8
	c-1.2-2.1-2.4-10.8-3.5-20.1c-0.5,0.1-1,0.2-1.6,0.2c-0.5,0-1.1-0.1-1.6-0.2c-1.1,9.3-2.3,18-3.5,20.1c-0.3,0.5-0.4,0.8-0.4,0.8
	c-0.3-0.1-0.8-0.8-1.2-1.8c-1.8-3.6-3.3-10.4-3.9-13.7c-0.1-0.4-0.1-0.6-0.1-0.8c-0.1-0.7-0.2-2.1-0.4-3.6c-1.6,1.3-3.7,1.7-5.8,1
	c-0.1-0.1-0.3-0.1-0.4-0.2l0.3,2.3c1.1,29.2-6.9,5-8.4,0.4c-1.3,1.6-3.2,2.5-5.3,2.5l0.3,0.8c6,28.3-7.5,11.1-12,5
	c-0.8,0.8-1.8,1.4-2.9,1.8l11.7,26.2c-0.2,0.1-0.5,0.1-0.7,0.2c-0.3,0-0.7,0.1-1,0.2c-1.4,0.6-2.1,1.9-1.7,2.9
	c0.4,0.9,1.5,1.3,2.7,1l0,0.1c0,0,0.3-0.1,0.8-0.3v12.5c-0.3,0.1-0.6,0.2-0.9,0.3c-0.3,0-0.7,0.1-1,0.2c-1.4,0.6-2.1,1.9-1.7,2.9
	c0.4,0.9,1.5,1.3,2.7,1l0,0c0.1,0,14-4.9,34.2-4.9c20.2,0,34.1,4.9,34.2,4.9l0,0c1.2,0.3,2.4-0.1,2.7-1c0.4-1-0.3-2.3-1.7-2.9
	c-0.3-0.1-0.7-0.2-1-0.2c-0.3-0.1-0.5-0.2-0.9-0.3V67.1c0.5,0.2,0.8,0.3,0.8,0.3l0-0.1c1.2,0.3,2.4-0.1,2.7-1c0.4-1-0.3-2.3-1.7-2.9
	c-0.3-0.1-0.7-0.2-1-0.2C94,63,93.8,63,93.5,62.9l11.7-26.2C104.1,36.4,103.2,35.8,102.4,35z M86.7,34.2
	C86.7,34.2,86.7,34.2,86.7,34.2C86.7,34.2,86.7,34.2,86.7,34.2L86.7,34.2z M45.8,27.6l0.5-0.1c0,0.2,0.1,0.4,0.1,0.6
	c0.5,2.5,4.4,20,7,21c0.9,0.3,2.5,0.2,3.4-1.5c1.3-2.6,2.3-7.2,3.1-11.5c0.7,4.3,1.8,8.9,3.1,11.5c0.8,1.7,2.5,1.9,3.4,1.5
	c2.6-1,6.5-18.5,7-21c0-0.2,0.1-0.4,0.1-0.6l0.5,0.1c-0.8,23.6,1.7,26.5,4.8,22.4l-3.3,9.3c-4.6-0.6-9.8-0.9-15.6-0.9
	c-5.7,0-11,0.4-15.6,0.9L41.1,50C44.1,54.1,46.7,51.1,45.8,27.6z M33.3,34.2C33.3,34.2,33.3,34.2,33.3,34.2
	C33.3,34.2,33.2,34.2,33.3,34.2L33.3,34.2z M31.9,78.2c-0.9,0.2-1.7,0.4-2.5,0.6V66.2c0.7-0.2,1.6-0.4,2.5-0.6V78.2z M29.2,62.1
	l-7.4-16.4c2.1,2.4,4.4,4.6,6.4,5.9l3.9,9.8C31,61.7,30.1,61.9,29.2,62.1z M32.9,58l-2.1-5.3c1.1,0.2,2-0.2,2.7-1.3l3.6,9.1
	c-1,0.2-2,0.4-2.9,0.6L32.9,58z M37.3,77.1c-0.9,0.2-1.7,0.3-2.5,0.5V65c0.8-0.2,1.6-0.3,2.5-0.5V77.1z M34.4,48.2
	c0.3-2.3,0.1-5.5-0.5-9.9l8.4,21.3c-1.1,0.2-2.2,0.3-3.2,0.5L34.4,48.2z M80.2,76.7c-5.6-0.9-12.5-1.6-20.2-1.6
	c-7.8,0-14.7,0.7-20.2,1.6V64.1c5.5-0.9,12.4-1.6,20.2-1.6c7.8,0,14.7,0.7,20.2,1.6V76.7z M77.6,59.6L86,38.3
	c-0.6,4.4-0.7,7.6-0.5,9.9l-4.7,11.9C79.8,59.9,78.8,59.8,77.6,59.6z M85.1,77.6c-0.8-0.2-1.6-0.3-2.5-0.5V64.5
	c0.9,0.2,1.7,0.3,2.5,0.5V77.6z M85.8,61c-0.9-0.2-1.9-0.4-2.9-0.6l3.6-9.1c0.6,1.1,1.6,1.4,2.7,1.3L87,58L85.8,61z M90.4,78.8
	c-0.8-0.2-1.6-0.4-2.5-0.6V65.6c0.9,0.2,1.7,0.4,2.5,0.6V78.8z M90.7,62.1c-0.9-0.2-1.8-0.5-2.9-0.7l3.9-9.8c2-1.3,4.3-3.5,6.4-5.9
	L90.7,62.1z M9.3,26.7L9.3,26.7c1.5,0,2.7-1.2,2.7-2.7c0-1.5-1.2-2.7-2.7-2.7h0c-1.5,0-2.7,1.2-2.7,2.7C6.6,25.5,7.8,26.7,9.3,26.7z
	 M18.7,29.4c0-2.9-1.9-5.3-4.5-6.2c0,0.2,0.1,0.5,0.1,0.7c0,2.8-2.2,5-5,5h0C8,29,6.9,28.5,6,27.8c-0.1,0.5-0.2,1.1-0.2,1.7
	c0,2.5,1.4,4.7,3.5,5.8c0.9,0.5,1.9,0.7,3,0.7C15.8,35.9,18.7,33,18.7,29.4z M41.2,70.5l6.4,3.3l5.2-5l-6.4-3.3L41.2,70.5z
	 M54.6,68.8l5.4,3.9l5.4-3.9L60,65L54.6,68.8z M65.3,52.6L60,48.7l-5.4,3.8l5.4,3.9L65.3,52.6z M27.4,19.7c0.2,0,0.3,0,0.5,0
	c1.1,0,2.1-0.8,2.3-1.9c0.3-1.3-0.6-2.5-1.8-2.7c-0.2,0-0.3,0-0.5,0c-1.1,0-2.1,0.8-2.3,1.9C25.3,18.2,26.1,19.4,27.4,19.7z
	 M27.9,27.8c0.2,0,0.3,0.1,0.5,0.1c3,0.6,6-1.3,6.6-4.4c0.5-2.4-0.7-4.8-2.8-6c0,0.2,0,0.4-0.1,0.6c-0.4,2-2.2,3.4-4.2,3.4
	c-0.3,0-0.6,0-0.8-0.1c-1.1-0.2-2-0.8-2.6-1.6c-0.2,0.4-0.4,0.9-0.5,1.4C23.4,24.3,25.1,27,27.9,27.8z M43.5,15.6
	c0.2,0.1,0.5,0.1,0.7,0.1c0.9,0,1.7-0.5,2-1.4c0.4-1.1-0.2-2.3-1.3-2.7c-0.2-0.1-0.5-0.1-0.7-0.1c-0.9,0-1.7,0.5-2,1.4
	C41.8,14,42.4,15.2,43.5,15.6z M43.3,23.1c0.3,0.1,0.6,0.2,0.9,0.2c2.4,0.4,4.7-1,5.5-3.3c0.7-2.1,0-4.4-1.7-5.7
	c0,0.2-0.1,0.4-0.2,0.6c-0.6,1.6-2.1,2.6-3.7,2.6c-0.4,0-0.9-0.1-1.3-0.2c-0.9-0.3-1.7-1-2.1-1.8c-0.2,0.4-0.4,0.8-0.6,1.2
	C39.3,19.3,40.7,22.2,43.3,23.1z M57.6,20.6c0.7,0.4,1.5,0.6,2.3,0.6l0,0c0.8,0,1.6-0.2,2.3-0.6c1.5-0.8,2.4-2.3,2.5-3.9v-0.6
	c0-0.7-0.2-1.4-0.6-2c-0.2-0.4-0.5-0.7-0.7-1c-0.3,0.8-0.9,1.5-1.7,2c-0.6,0.3-1.2,0.5-1.8,0.5l0,0c-0.6,0-1.2-0.1-1.8-0.5
	c-0.8-0.5-1.4-1.2-1.7-2c-0.3,0.3-0.5,0.6-0.7,1c-0.4,0.6-0.5,1.3-0.6,2v0.6C55.3,18.3,56.2,19.8,57.6,20.6z M59,13.6
	c0.3,0.2,0.6,0.2,0.9,0.2l0,0c0.3,0,0.6-0.1,0.9-0.2c1-0.5,1.3-1.8,0.8-2.7c-0.4-0.7-1-1-1.7-1l0,0c-0.7,0-1.4,0.4-1.7,1
	C57.7,11.8,58,13,59,13.6z M110.6,26.7c1.5,0,2.7-1.2,2.7-2.7c0-1.5-1.2-2.7-2.7-2.7c-1.5,0-2.7,1.2-2.7,2.7
	C107.9,25.5,109.1,26.7,110.6,26.7z M113.9,27.8c-0.9,0.8-2,1.2-3.3,1.2c-2.8,0-5-2.2-5-5c0-0.2,0-0.5,0-0.7
	c-2.6,0.8-4.5,3.3-4.5,6.2c0,3.6,2.9,6.5,6.5,6.5c1.1,0,2.1-0.3,3-0.7c2.1-1.1,3.5-3.2,3.5-5.8C114.1,28.9,114.1,28.3,113.9,27.8z
	 M78.7,70.5l-5.2-5L67,68.8l5.2,5L78.7,70.5z M91.6,28c0.2,0,0.3-0.1,0.5-0.1c2.7-0.8,4.5-3.6,3.9-6.4c-0.1-0.5-0.3-1-0.5-1.4
	c-0.6,0.8-1.5,1.4-2.6,1.6c-0.3,0.1-0.6,0.1-0.8,0.1c-2,0-3.8-1.4-4.2-3.4c0-0.2-0.1-0.4-0.1-0.6c-2.1,1.2-3.2,3.5-2.8,6
	C85.6,26.6,88.6,28.6,91.6,28z M92.1,19.7c0.2,0,0.3,0,0.5,0c1.3-0.3,2.1-1.5,1.8-2.7c-0.2-1.1-1.2-1.9-2.3-1.9c-0.2,0-0.3,0-0.5,0
	c-1.3,0.3-2.1,1.5-1.8,2.7C90,19,91,19.7,92.1,19.7z M75.7,23.3c0.3,0,0.6-0.1,0.9-0.2c2.1-0.7,3.4-2.7,3.4-4.8v-0.1
	c0-0.5-0.1-1.1-0.3-1.6c-0.1-0.4-0.4-0.8-0.6-1.2c-0.4,0.8-1.2,1.4-2.1,1.8c-0.4,0.1-0.9,0.2-1.3,0.2c-1.6,0-3.1-1-3.7-2.6
	c-0.1-0.2-0.1-0.4-0.1-0.6c-1.7,1.3-2.5,3.6-1.7,5.7C71,22.3,73.3,23.7,75.7,23.3z M75.7,15.7c0.2,0,0.5,0,0.7-0.1
	c1.1-0.4,1.7-1.6,1.3-2.7c-0.3-0.9-1.1-1.4-2-1.4c-0.2,0-0.5,0-0.7,0.1c-1.1,0.4-1.7,1.6-1.3,2.7C74,15.1,74.8,15.7,75.7,15.7z"/>
</svg>
