<svg id="Layer_1" data-name="Layer 1" xmlns="http://www.w3.org/2000/svg" width="108.3" height="74.2" viewBox="0 0 108.3 74.2"><defs><style>.cls-1{fill:#040707;}</style></defs><title>crown-logo-black</title><path class="cls-1" d="M102.4,35c-4.5,6.1-17.9,23.3-12-5l.3-.8a6.32,6.32,0,0,1-5.3-2.5c-1.5,4.6-9.5,28.8-8.4-.4l.3-2.3c-.1.1-.3.1-.4.2a6,6,0,0,1-5.8-1c-.2,1.4-.3,2.9-.4,3.6a2.49,2.49,0,0,1-.1.8c-.7,3.3-2.1,10.1-3.9,13.7a5.28,5.28,0,0,1-1.2,1.8l-.4-.8c-1.2-2.1-2.4-10.8-3.5-20.1a7.77,7.77,0,0,1-1.6.2,8.75,8.75,0,0,1-1.6-.2c-1.1,9.3-2.3,18-3.5,20.1a4.56,4.56,0,0,0-.4.8,3.55,3.55,0,0,1-1.2-1.8c-1.8-3.6-3.3-10.4-3.9-13.7a2.81,2.81,0,0,1-.1-.8c-.1-.7-.2-2.1-.4-3.6a6,6,0,0,1-5.8,1c-.1-.1-.3-.1-.4-.2l.3,2.3c1.1,29.2-6.9,5-8.4.4a6.74,6.74,0,0,1-5.3,2.5l.3.8c6,28.3-7.5,11.1-12,5a7.89,7.89,0,0,1-2.9,1.8L26.4,63c-.2.1-.5.1-.7.2a3.55,3.55,0,0,0-1,.2c-1.4.6-2.1,1.9-1.7,2.9a2.22,2.22,0,0,0,2.7,1v.1s.3-.1.8-.3V79.6l-.9.3a3.55,3.55,0,0,0-1,.2c-1.4.6-2.1,1.9-1.7,2.9a2.22,2.22,0,0,0,2.7,1h0c.1,0,14-4.9,34.2-4.9S93.9,84,94,84h0a2.17,2.17,0,0,0,2.7-1c.4-1-.3-2.3-1.7-2.9a3.55,3.55,0,0,0-1-.2,9.44,9.44,0,0,0-.9-.3V67.1c.5.2.8.3.8.3v-.1a2.17,2.17,0,0,0,2.7-1c.4-1-.3-2.3-1.7-2.9a3.55,3.55,0,0,0-1-.2c.1-.2-.1-.2-.4-.3l11.7-26.2A6.24,6.24,0,0,1,102.4,35Zm-15.7-.8ZM45.8,27.6l.5-.1c0,.2.1.4.1.6.5,2.5,4.4,20,7,21a2.81,2.81,0,0,0,3.4-1.5c1.3-2.6,2.3-7.2,3.1-11.5.7,4.3,1.8,8.9,3.1,11.5a2.67,2.67,0,0,0,3.4,1.5c2.6-1,6.5-18.5,7-21,0-.2.1-.4.1-.6l.5.1c-.8,23.6,1.7,26.5,4.8,22.4l-3.3,9.3a121.57,121.57,0,0,0-15.6-.9,144.41,144.41,0,0,0-15.6.9L41.1,50C44.1,54.1,46.7,51.1,45.8,27.6ZM33.3,34.2Zm-1.4,44c-.9.2-1.7.4-2.5.6V66.2c.7-.2,1.6-.4,2.5-.6ZM29.2,62.1,21.8,45.7a34.06,34.06,0,0,0,6.4,5.9l3.9,9.8C31,61.7,30.1,61.9,29.2,62.1ZM32.9,58l-2.1-5.3a2.47,2.47,0,0,0,2.7-1.3l3.6,9.1c-1,.2-2,.4-2.9.6Zm4.4,19.1c-.9.2-1.7.3-2.5.5V65c.8-.2,1.6-.3,2.5-.5ZM34.4,48.2a40.38,40.38,0,0,0-.5-9.9l8.4,21.3c-1.1.2-2.2.3-3.2.5ZM80.2,76.7A128.23,128.23,0,0,0,60,75.1a126.22,126.22,0,0,0-20.2,1.6V64.1a128.31,128.31,0,0,1,40.4,0ZM77.6,59.6,86,38.3a46.16,46.16,0,0,0-.5,9.9L80.8,60.1C79.8,59.9,78.8,59.8,77.6,59.6Zm7.5,18c-.8-.2-1.6-.3-2.5-.5V64.5c.9.2,1.7.3,2.5.5ZM85.8,61c-.9-.2-1.9-.4-2.9-.6l3.6-9.1a2.55,2.55,0,0,0,2.7,1.3L87,58Zm4.6,17.8c-.8-.2-1.6-.4-2.5-.6V65.6c.9.2,1.7.4,2.5.6Zm.3-16.7c-.9-.2-1.8-.5-2.9-.7l3.9-9.8a34.06,34.06,0,0,0,6.4-5.9ZM9.3,26.7h0a2.7,2.7,0,0,0,0-5.4h0a2.7,2.7,0,0,0,0,5.4Zm9.4,2.7a6.58,6.58,0,0,0-4.5-6.2c0,.2.1.5.1.7a5,5,0,0,1-5,5h0A4.72,4.72,0,0,1,6,27.8a8.81,8.81,0,0,0-.2,1.7,6.54,6.54,0,0,0,3.5,5.8,6,6,0,0,0,3,.7A6.62,6.62,0,0,0,18.7,29.4ZM41.2,70.5l6.4,3.3,5.2-5-6.4-3.3Zm13.4-1.7L60,72.7l5.4-3.9L60,65ZM65.3,52.6,60,48.7l-5.4,3.8L60,56.4ZM27.4,19.7h.5a2.35,2.35,0,0,0,2.3-1.9,2.24,2.24,0,0,0-1.8-2.7h-.5A2.35,2.35,0,0,0,25.6,17,2.26,2.26,0,0,0,27.4,19.7Zm.5,8.1c.2,0,.3.1.5.1A5.58,5.58,0,0,0,35,23.5a5.64,5.64,0,0,0-2.8-6,1.27,1.27,0,0,1-.1.6,4.28,4.28,0,0,1-4.2,3.4,2,2,0,0,1-.8-.1,4.16,4.16,0,0,1-2.6-1.6,5.78,5.78,0,0,0-.5,1.4A5.55,5.55,0,0,0,27.9,27.8ZM43.5,15.6a1.7,1.7,0,0,0,.7.1,2,2,0,0,0,2-1.4,2.12,2.12,0,0,0-1.3-2.7,1.7,1.7,0,0,0-.7-.1,2,2,0,0,0-2,1.4A2.12,2.12,0,0,0,43.5,15.6Zm-.2,7.5a2.92,2.92,0,0,0,.9.2A5,5,0,0,0,49.7,20,5.14,5.14,0,0,0,48,14.3a1.42,1.42,0,0,1-.2.6,4,4,0,0,1-3.7,2.6,5.85,5.85,0,0,1-1.3-.2,3.75,3.75,0,0,1-2.1-1.8l-.6,1.2A5.2,5.2,0,0,0,43.3,23.1Zm14.3-2.5a4.65,4.65,0,0,0,2.3.6h0a4.65,4.65,0,0,0,2.3-.6,4.74,4.74,0,0,0,2.5-3.9v-.6a3.61,3.61,0,0,0-.6-2,8.65,8.65,0,0,0-.7-1,3.83,3.83,0,0,1-3.5,2.5h0a3.09,3.09,0,0,1-1.8-.5,4.1,4.1,0,0,1-1.7-2,3.59,3.59,0,0,0-.7,1,4.66,4.66,0,0,0-.6,2v.6A5.23,5.23,0,0,0,57.6,20.6Zm1.4-7a1.49,1.49,0,0,0,.9.2h0a2.92,2.92,0,0,0,.9-.2,2,2,0,0,0,.8-2.7,1.86,1.86,0,0,0-1.7-1h0a1.94,1.94,0,0,0-1.7,1A2,2,0,0,0,59,13.6Zm51.6,13.1a2.7,2.7,0,1,0-2.7-2.7A2.69,2.69,0,0,0,110.6,26.7Zm3.3,1.1a4.79,4.79,0,0,1-3.3,1.2,5,5,0,0,1-5-5v-.7a6.51,6.51,0,0,0,2,12.7,7.35,7.35,0,0,0,3-.7,6.43,6.43,0,0,0,3.5-5.8A4.68,4.68,0,0,0,113.9,27.8ZM78.7,70.5l-5.2-5L67,68.8l5.2,5ZM91.6,28c.2,0,.3-.1.5-.1A5.58,5.58,0,0,0,96,21.5a5.78,5.78,0,0,0-.5-1.4,4.16,4.16,0,0,1-2.6,1.6,2.49,2.49,0,0,1-.8.1,4.28,4.28,0,0,1-4.2-3.4c0-.2-.1-.4-.1-.6a5.72,5.72,0,0,0-2.8,6A5.69,5.69,0,0,0,91.6,28Zm.5-8.3h.5A2.26,2.26,0,0,0,94.4,17a2.35,2.35,0,0,0-2.3-1.9h-.5a2.33,2.33,0,0,0,.5,4.6ZM75.7,23.3a2.92,2.92,0,0,0,.9-.2A5,5,0,0,0,80,18.3v-.1a4.53,4.53,0,0,0-.3-1.6,6.72,6.72,0,0,0-.6-1.2A4.17,4.17,0,0,1,77,17.2a5.85,5.85,0,0,1-1.3.2A4,4,0,0,1,72,14.8a1.27,1.27,0,0,1-.1-.6,5,5,0,0,0-1.7,5.7A4.93,4.93,0,0,0,75.7,23.3Zm0-7.6a1.7,1.7,0,0,0,.7-.1,2.12,2.12,0,0,0,1.3-2.7,2,2,0,0,0-2-1.4,1.7,1.7,0,0,0-.7.1,2.12,2.12,0,0,0-1.3,2.7A2.17,2.17,0,0,0,75.7,15.7Z" transform="translate(-5.8 -9.9)"/></svg>