<?xml version="1.0" encoding="utf-8"?>
<!-- Generator: Adobe Illustrator 18.1.1, SVG Export Plug-In . SVG Version: 6.00 Build 0)  -->
<svg version="1.1" id="Layer_1" xmlns="http://www.w3.org/2000/svg" xmlns:xlink="http://www.w3.org/1999/xlink" x="0px" y="0px"
	 width="120.5px" height="92.3px" viewBox="-245 350.7 120.5 92.3" enable-background="new -245 350.7 120.5 92.3"
	 xml:space="preserve">
<path fill="#FFFFFF" d="M-142.6,385.7c-4.5,6.1-17.9,23.3-12-5l0.3-0.8c-2.1,0.1-4.1-0.9-5.3-2.5c-1.5,4.6-9.5,28.8-8.4-0.4l0.3-2.3
	c-0.1,0.1-0.3,0.1-0.4,0.2c-2,0.7-4.2,0.3-5.8-1c-0.2,1.4-0.3,2.9-0.4,3.6c0,0.2,0,0.5-0.1,0.8c-0.7,3.3-2.1,10.1-3.9,13.7
	c-0.5,1-0.9,1.6-1.2,1.8c0,0-0.1-0.2-0.4-0.8c-1.2-2.1-2.4-10.8-3.5-20.1c-0.5,0.1-1,0.2-1.6,0.2c-0.5,0-1.1-0.1-1.6-0.2
	c-1.1,9.3-2.3,18-3.5,20.1c-0.3,0.5-0.4,0.8-0.4,0.8c-0.3-0.1-0.8-0.8-1.2-1.8c-1.8-3.6-3.3-10.4-3.9-13.7c-0.1-0.4-0.1-0.6-0.1-0.8
	c-0.1-0.7-0.2-2.1-0.4-3.6c-1.6,1.3-3.7,1.7-5.8,1c-0.1-0.1-0.3-0.1-0.4-0.2l0.3,2.3c1.1,29.2-6.9,5-8.4,0.4
	c-1.3,1.6-3.2,2.5-5.3,2.5l0.3,0.8c6,28.3-7.5,11.1-12,5c-0.8,0.8-1.8,1.4-2.9,1.8l11.7,26.2c-0.2,0.1-0.5,0.1-0.7,0.2
	c-0.3,0-0.7,0.1-1,0.2c-1.4,0.6-2.1,1.9-1.7,2.9c0.4,0.9,1.5,1.3,2.7,1v0.1c0,0,0.3-0.1,0.8-0.3v12.5c-0.3,0.1-0.6,0.2-0.9,0.3
	c-0.3,0-0.7,0.1-1,0.2c-1.4,0.6-2.1,1.9-1.7,2.9c0.4,0.9,1.5,1.3,2.7,1l0,0c0.1,0,14-4.9,34.2-4.9c20.2,0,34.1,4.9,34.2,4.9l0,0
	c1.2,0.3,2.4-0.1,2.7-1c0.4-1-0.3-2.3-1.7-2.9c-0.3-0.1-0.7-0.2-1-0.2c-0.3-0.1-0.5-0.2-0.9-0.3v-12.5c0.5,0.2,0.8,0.3,0.8,0.3V418
	c1.2,0.3,2.4-0.1,2.7-1c0.4-1-0.3-2.3-1.7-2.9c-0.3-0.1-0.7-0.2-1-0.2c0.1-0.2-0.1-0.2-0.4-0.3l11.7-26.2
	C-140.9,387.1-141.8,386.5-142.6,385.7z M-158.3,384.9L-158.3,384.9L-158.3,384.9L-158.3,384.9z M-199.2,378.3l0.5-0.1
	c0,0.2,0.1,0.4,0.1,0.6c0.5,2.5,4.4,20,7,21c0.9,0.3,2.5,0.2,3.4-1.5c1.3-2.6,2.3-7.2,3.1-11.5c0.7,4.3,1.8,8.9,3.1,11.5
	c0.8,1.7,2.5,1.9,3.4,1.5c2.6-1,6.5-18.5,7-21c0-0.2,0.1-0.4,0.1-0.6l0.5,0.1c-0.8,23.6,1.7,26.5,4.8,22.4l-3.3,9.3
	c-4.6-0.6-9.8-0.9-15.6-0.9c-5.7,0-11,0.4-15.6,0.9l-3.2-9.3C-200.9,404.8-198.3,401.8-199.2,378.3z M-211.7,384.9L-211.7,384.9
	C-211.7,384.9-211.8,384.9-211.7,384.9L-211.7,384.9z M-213.1,428.9c-0.9,0.2-1.7,0.4-2.5,0.6v-12.6c0.7-0.2,1.6-0.4,2.5-0.6V428.9z
	 M-215.8,412.8l-7.4-16.4c2.1,2.4,4.4,4.6,6.4,5.9l3.9,9.8C-214,412.4-214.9,412.6-215.8,412.8z M-212.1,408.7l-2.1-5.3
	c1.1,0.2,2-0.2,2.7-1.3l3.6,9.1c-1,0.2-2,0.4-2.9,0.6L-212.1,408.7z M-207.7,427.8c-0.9,0.2-1.7,0.3-2.5,0.5v-12.6
	c0.8-0.2,1.6-0.3,2.5-0.5V427.8z M-210.6,398.9c0.3-2.3,0.1-5.5-0.5-9.9l8.4,21.3c-1.1,0.2-2.2,0.3-3.2,0.5L-210.6,398.9z
	 M-164.8,427.4c-5.6-0.9-12.5-1.6-20.2-1.6c-7.8,0-14.7,0.7-20.2,1.6v-12.6c5.5-0.9,12.4-1.6,20.2-1.6c7.8,0,14.7,0.7,20.2,1.6
	V427.4z M-167.4,410.3l8.4-21.3c-0.6,4.4-0.7,7.6-0.5,9.9l-4.7,11.9C-165.2,410.6-166.2,410.5-167.4,410.3z M-159.9,428.3
	c-0.8-0.2-1.6-0.3-2.5-0.5v-12.6c0.9,0.2,1.7,0.3,2.5,0.5V428.3z M-159.2,411.7c-0.9-0.2-1.9-0.4-2.9-0.6l3.6-9.1
	c0.6,1.1,1.6,1.4,2.7,1.3l-2.2,5.4L-159.2,411.7z M-154.6,429.5c-0.8-0.2-1.6-0.4-2.5-0.6v-12.6c0.9,0.2,1.7,0.4,2.5,0.6V429.5z
	 M-154.3,412.8c-0.9-0.2-1.8-0.5-2.9-0.7l3.9-9.8c2-1.3,4.3-3.5,6.4-5.9L-154.3,412.8z M-235.7,377.4L-235.7,377.4
	c1.5,0,2.7-1.2,2.7-2.7s-1.2-2.7-2.7-2.7l0,0c-1.5,0-2.7,1.2-2.7,2.7S-237.2,377.4-235.7,377.4z M-226.3,380.1
	c0-2.9-1.9-5.3-4.5-6.2c0,0.2,0.1,0.5,0.1,0.7c0,2.8-2.2,5-5,5l0,0c-1.3,0.1-2.4-0.4-3.3-1.1c-0.1,0.5-0.2,1.1-0.2,1.7
	c0,2.5,1.4,4.7,3.5,5.8c0.9,0.5,1.9,0.7,3,0.7C-229.2,386.6-226.3,383.7-226.3,380.1z M-203.8,421.2l6.4,3.3l5.2-5l-6.4-3.3
	L-203.8,421.2z M-190.4,419.5l5.4,3.9l5.4-3.9l-5.4-3.8L-190.4,419.5z M-179.7,403.3l-5.3-3.9l-5.4,3.8l5.4,3.9L-179.7,403.3z
	 M-217.6,370.4c0.2,0,0.3,0,0.5,0c1.1,0,2.1-0.8,2.3-1.9c0.3-1.3-0.6-2.5-1.8-2.7c-0.2,0-0.3,0-0.5,0c-1.1,0-2.1,0.8-2.3,1.9
	C-219.7,368.9-218.9,370.1-217.6,370.4z M-217.1,378.5c0.2,0,0.3,0.1,0.5,0.1c3,0.6,6-1.3,6.6-4.4c0.5-2.4-0.7-4.8-2.8-6
	c0,0.2,0,0.4-0.1,0.6c-0.4,2-2.2,3.4-4.2,3.4c-0.3,0-0.6,0-0.8-0.1c-1.1-0.2-2-0.8-2.6-1.6c-0.2,0.4-0.4,0.9-0.5,1.4
	C-221.6,375-219.9,377.7-217.1,378.5z M-201.5,366.3c0.2,0.1,0.5,0.1,0.7,0.1c0.9,0,1.7-0.5,2-1.4c0.4-1.1-0.2-2.3-1.3-2.7
	c-0.2-0.1-0.5-0.1-0.7-0.1c-0.9,0-1.7,0.5-2,1.4C-203.2,364.7-202.6,365.9-201.5,366.3z M-201.7,373.8c0.3,0.1,0.6,0.2,0.9,0.2
	c2.4,0.4,4.7-1,5.5-3.3c0.7-2.1,0-4.4-1.7-5.7c0,0.2-0.1,0.4-0.2,0.6c-0.6,1.6-2.1,2.6-3.7,2.6c-0.4,0-0.9-0.1-1.3-0.2
	c-0.9-0.3-1.7-1-2.1-1.8c-0.2,0.4-0.4,0.8-0.6,1.2C-205.7,370-204.3,372.9-201.7,373.8z M-187.4,371.3c0.7,0.4,1.5,0.6,2.3,0.6l0,0
	c0.8,0,1.6-0.2,2.3-0.6c1.5-0.8,2.4-2.3,2.5-3.9v-0.6c0-0.7-0.2-1.4-0.6-2c-0.2-0.4-0.5-0.7-0.7-1c-0.3,0.8-0.9,1.5-1.7,2
	c-0.6,0.3-1.2,0.5-1.8,0.5l0,0c-0.6,0-1.2-0.1-1.8-0.5c-0.8-0.5-1.4-1.2-1.7-2c-0.3,0.3-0.5,0.6-0.7,1c-0.4,0.6-0.5,1.3-0.6,2v0.6
	C-189.7,369-188.8,370.5-187.4,371.3z M-186,364.3c0.3,0.2,0.6,0.2,0.9,0.2l0,0c0.3,0,0.6-0.1,0.9-0.2c1-0.5,1.3-1.8,0.8-2.7
	c-0.4-0.7-1-1-1.7-1l0,0c-0.7,0-1.4,0.4-1.7,1C-187.3,362.5-187,363.7-186,364.3z M-134.4,377.4c1.5,0,2.7-1.2,2.7-2.7
	s-1.2-2.7-2.7-2.7s-2.7,1.2-2.7,2.7S-135.9,377.4-134.4,377.4z M-131.1,378.5c-0.9,0.8-2,1.2-3.3,1.2c-2.8,0-5-2.2-5-5
	c0-0.2,0-0.5,0-0.7c-2.6,0.8-4.5,3.3-4.5,6.2c0,3.6,2.9,6.5,6.5,6.5c1.1,0,2.1-0.3,3-0.7c2.1-1.1,3.5-3.2,3.5-5.8
	C-130.9,379.6-130.9,379-131.1,378.5z M-166.3,421.2l-5.2-5l-6.5,3.3l5.2,5L-166.3,421.2z M-153.4,378.7c0.2,0,0.3-0.1,0.5-0.1
	c2.7-0.8,4.5-3.6,3.9-6.4c-0.1-0.5-0.3-1-0.5-1.4c-0.6,0.8-1.5,1.4-2.6,1.6c-0.3,0.1-0.6,0.1-0.8,0.1c-2,0-3.8-1.4-4.2-3.4
	c0-0.2-0.1-0.4-0.1-0.6c-2.1,1.2-3.2,3.5-2.8,6C-159.4,377.3-156.4,379.3-153.4,378.7z M-152.9,370.4c0.2,0,0.3,0,0.5,0
	c1.3-0.3,2.1-1.5,1.8-2.7c-0.2-1.1-1.2-1.9-2.3-1.9c-0.2,0-0.3,0-0.5,0c-1.3,0.3-2.1,1.5-1.8,2.7C-155,369.7-154,370.4-152.9,370.4z
	 M-169.3,374c0.3,0,0.6-0.1,0.9-0.2c2.1-0.7,3.4-2.7,3.4-4.8v-0.1c0-0.5-0.1-1.1-0.3-1.6c-0.1-0.4-0.4-0.8-0.6-1.2
	c-0.4,0.8-1.2,1.4-2.1,1.8c-0.4,0.1-0.9,0.2-1.3,0.2c-1.6,0-3.1-1-3.7-2.6c-0.1-0.2-0.1-0.4-0.1-0.6c-1.7,1.3-2.5,3.6-1.7,5.7
	C-174,373-171.7,374.4-169.3,374z M-169.3,366.4c0.2,0,0.5,0,0.7-0.1c1.1-0.4,1.7-1.6,1.3-2.7c-0.3-0.9-1.1-1.4-2-1.4
	c-0.2,0-0.5,0-0.7,0.1c-1.1,0.4-1.7,1.6-1.3,2.7C-171,365.8-170.2,366.4-169.3,366.4z"/>
</svg>
