<?xml version="1.0" encoding="utf-8"?>
<!-- Generator: Adobe Illustrator 18.1.1, SVG Export Plug-In . SVG Version: 6.00 Build 0)  -->
<svg version="1.1" id="Layer_1" xmlns="http://www.w3.org/2000/svg" xmlns:xlink="http://www.w3.org/1999/xlink" x="0px" y="0px"
	 width="200px" height="90px" viewBox="-202 352 200 90" enable-background="new -202 352 200 90" xml:space="preserve">
<path fill="#020202" d="M-112.1,390.6c2.3,2.3,6.6,3.5,12.6,3.5c3.5,0,6.3-0.5,8.6-1.5c2.3-1,4.1-2.5,5.3-4.4
	c1.3-1.9,1.9-4.1,1.9-6.3c0-2-0.5-3.7-1.4-5.3c-1-1.6-2.5-2.9-4.6-4s-5.6-2.1-10.4-3.2c-2-0.4-3.2-0.8-3.7-1.3s-0.8-1-0.8-1.5
	c0-0.8,0.3-1.4,1-2c0.7-0.5,1.6-0.8,2.9-0.8c1.6,0,2.8,0.4,3.7,1.1c0.9,0.7,1.5,1.9,1.7,3.5l10.4-0.6c-0.5-3.7-1.9-6.4-4.3-8.1
	c-2.4-1.7-5.9-2.6-10.5-2.6c-3.7,0-6.7,0.5-8.8,1.4c-2.1,0.9-3.7,2.2-4.8,3.9c-1.1,1.6-1.6,3.4-1.6,5.2c0,2.8,1,5.1,3.1,6.9
	s5.5,3.3,10.4,4.3c3,0.7,4.9,1.3,5.7,2.1c0.8,0.7,1.2,1.6,1.2,2.5c0,1-0.4,1.8-1.3,2.6c-0.9,0.7-2.1,1.1-3.6,1.1
	c-2.1,0-3.7-0.7-4.9-2.2c-0.7-0.9-1.2-2.2-1.4-3.9l-10.5,0.7C-115.8,385.3-114.4,388.3-112.1,390.6z"/>
<path fill="#020202" d="M-71.5,393.5h12l13.3-35.8h-11.2l-8,25.8l-8.1-25.8H-85L-71.5,393.5z"/>
<path fill="#020202" d="M-44.1,393.5h10.4v-19.6l13.4,19.7h10.4v-35.9h-10.4v19.8l-13.4-19.8H-44v35.8H-44.1z"/>
<path fill="#020202" d="M-148.5,435.1v-14.5h1c1,0,1.9,0.3,2.7,0.8c0.6,0.4,1.3,1.3,2,2.8l5.9,10.9h12.5l-5.4-10.4
	c-0.3-0.5-0.8-1.3-1.5-2.2c-0.8-1-1.4-1.6-1.8-1.9c-0.6-0.4-1.6-0.9-2.9-1.3c1.6-0.4,2.9-0.8,3.9-1.4c1.5-0.9,2.6-2.1,3.5-3.5
	c0.8-1.4,1.3-3.2,1.3-5.1c0-2.3-0.6-4.2-1.7-5.8c-1.1-1.6-2.6-2.7-4.4-3.3c-1.8-0.6-4.4-0.9-7.8-0.9h-18.4v35.8
	C-159.6,435.1-148.5,435.1-148.5,435.1z M-148.5,406.5h4.9c2,0,3.4,0.3,4.1,0.9s1.1,1.5,1.1,2.7c0,0.8-0.2,1.5-0.7,2.1
	c-0.5,0.6-1.1,1-1.8,1.1c-1.4,0.3-2.4,0.5-2.9,0.5h-4.7V406.5z"/>
<path fill="#020202" d="M-118.1,435.1h10.8l6.3-22.5l6.3,22.5h10.8l7.9-35.8h-10.4l-3.8,20l-5.5-20h-10.6l-5.5,20l-3.8-20h-10.5
	L-118.1,435.1z"/>
<path fill="#020202" d="M-74.8,435.1h10.4v-19.7l13.4,19.7h10.4v-35.8H-51v19.8l-13.5-19.8h-10.3V435.1z"/>
<path fill="#020202" d="M-34.7,432.2c2.3,2.3,6.6,3.5,12.6,3.5c3.5,0,6.3-0.5,8.6-1.5s4.1-2.5,5.3-4.4c1.3-1.9,1.9-4.1,1.9-6.3
	c0-2-0.5-3.7-1.4-5.3c-1-1.6-2.5-2.9-4.6-4s-5.6-2.1-10.4-3.2c-2-0.4-3.2-0.8-3.7-1.3s-0.8-1-0.8-1.5c0-0.8,0.3-1.4,1-2
	c0.7-0.5,1.6-0.8,2.9-0.8c1.6,0,2.8,0.4,3.7,1.1c0.9,0.7,1.5,1.9,1.7,3.5l10.4-0.6c-0.5-3.7-1.9-6.4-4.3-8.1
	c-2.4-1.7-5.9-2.6-10.5-2.6c-3.7,0-6.7,0.5-8.8,1.4c-2.1,0.9-3.7,2.2-4.8,3.9c-1.1,1.6-1.6,3.4-1.6,5.2c0,2.8,1,5.1,3.1,6.9
	c2.1,1.8,5.5,3.3,10.4,4.3c3,0.7,4.8,1.3,5.7,2.1c0.8,0.7,1.2,1.6,1.2,2.5c0,1-0.4,1.8-1.3,2.6c-0.9,0.7-2.1,1.1-3.6,1.1
	c-2.1,0-3.7-0.7-4.9-2.2c-0.7-0.9-1.2-2.2-1.4-3.9l-10.5,0.7C-38.4,426.9-37,429.8-34.7,432.2z"/>
<path fill="#6F5723" d="M-184.8,425.7c1.1,1.2,2.7,1.8,4.8,1.8c2.2,0,3.9-0.7,5.1-2.2c1.2-1.5,1.8-4.2,1.8-8.2c0-3.2-0.5-5.6-1.5-7
	c-1.3-2-3.3-3-5.8-3c-1.1,0-2.1,0.2-3,0.7c-0.9,0.5-1.7,1.1-2.3,2c-0.4,0.5-0.7,1.3-1.1,2.4l-9.8-2.2c1.3-3.8,3.2-6.6,5.7-8.4
	c2.6-1.8,6.1-2.7,10.6-2.7c5.8,0,10.2,1.6,13.4,4.8c3.1,3.2,4.7,7.7,4.7,13.7c0,4.4-0.9,8.1-2.7,10.9c-1.8,2.8-3.9,4.8-6.4,6
	c-2.5,1.1-5.6,1.7-9.5,1.7c-3.2,0-5.8-0.5-7.9-1.4c-2.1-0.9-3.8-2.3-5.2-4.1c-1.4-1.8-2.4-4.1-3.1-6.8l9.7-2.9
	C-186.7,422.8-185.9,424.5-184.8,425.7z"/>
</svg>
