<?xml version="1.0" encoding="utf-8"?>
<!-- Generator: Adobe Illustrator 18.1.1, SVG Export Plug-In . SVG Version: 6.00 Build 0)  -->
<svg version="1.1" id="Layer_1" xmlns="http://www.w3.org/2000/svg" xmlns:xlink="http://www.w3.org/1999/xlink" x="0px" y="0px"
	 width="396px" height="184px" viewBox="0 0 396 184" enable-background="new 0 0 396 184" xml:space="preserve">
<path fill="#050606" d="M180.4,82.3c4.7,4.7,13.3,7.1,25.6,7.1c7,0,12.8-1,17.4-3c4.6-2,8.2-5,10.8-8.9c2.6-3.9,3.9-8.2,3.9-12.9
	c0-4-1-7.5-2.9-10.7c-1.9-3.2-5-5.9-9.2-8c-4.2-2.2-11.2-4.3-21-6.4c-4-0.8-6.5-1.7-7.5-2.7c-1.1-0.9-1.6-2-1.6-3.1
	c0-1.6,0.7-2.9,2-4c1.3-1.1,3.3-1.7,5.9-1.7c3.2,0,5.6,0.7,7.4,2.2c1.8,1.5,3,3.9,3.5,7.1l21.1-1.2c-0.9-7.5-3.8-13-8.7-16.4
	c-4.9-3.4-11.9-5.2-21.2-5.2c-7.5,0-13.5,0.9-17.8,2.8c-4.3,1.9-7.6,4.5-9.7,7.8c-2.2,3.3-3.2,6.8-3.2,10.6c0,5.7,2.1,10.3,6.3,14
	c4.2,3.7,11.2,6.6,21,8.8c6,1.3,9.8,2.7,11.5,4.2c1.6,1.5,2.5,3.2,2.5,5c0,2-0.9,3.7-2.6,5.2c-1.7,1.5-4.2,2.2-7.4,2.2
	c-4.3,0-7.6-1.5-9.9-4.4c-1.4-1.8-2.4-4.4-2.8-7.9l-21.3,1.3C172.9,71.5,175.6,77.6,180.4,82.3z"/>
<path fill="#050606" d="M261.8,88.2h24.3L313,15.7h-22.7l-16.1,52.1l-16.3-52.1h-23.4L261.8,88.2z"/>
<path fill="#050606" d="M315.4,88.2h21.1V48.4l27.1,39.8h21.1V15.7h-21.1v40.1l-27.3-40.1h-20.9V88.2z"/>
<path fill="#050606" d="M100.9,176.9v-29.4h2c2,0,3.9,0.6,5.5,1.7c1.2,0.9,2.5,2.7,4.1,5.6l12,22.1h25.3l-10.8-21
	c-0.5-1.1-1.6-2.6-3.1-4.5c-1.6-1.9-2.8-3.2-3.6-3.8c-1.2-0.9-3.2-1.8-5.8-2.7c3.3-0.8,6-1.7,7.9-2.9c3-1.8,5.4-4.2,7.1-7.1
	c1.7-2.9,2.6-6.4,2.6-10.4c0-4.6-1.1-8.5-3.4-11.7c-2.2-3.2-5.2-5.4-8.8-6.6c-3.7-1.2-8.9-1.8-15.9-1.8H78.4v72.5H100.9z
	 M100.9,119.1h9.8c4.1,0,6.9,0.6,8.4,1.9c1.5,1.3,2.2,3,2.2,5.4c0,1.6-0.5,3-1.4,4.2c-0.9,1.2-2.1,2-3.6,2.3c-2.9,0.7-4.9,1-5.9,1
	h-9.4V119.1z"/>
<path fill="#050606" d="M163.2,176.9h22l12.7-45.6l12.7,45.6h22l16-72.5h-21.2l-7.7,40.5l-11.2-40.5h-21.2L176,145l-7.7-40.6h-21.3
	L163.2,176.9z"/>
<path fill="#050606" d="M252.2,176.9h21.1v-39.8l27.1,39.8h21.1v-72.5h-21.1v40.1l-27.3-40.1h-20.9V176.9z"/>
<path fill="#050606" d="M332.7,171c4.7,4.7,13.3,7.1,25.6,7.1c7,0,12.8-1,17.4-3c4.6-2,8.2-5,10.8-8.9c2.6-3.9,3.9-8.2,3.9-12.9
	c0-4-1-7.5-2.9-10.7c-1.9-3.2-5-5.9-9.2-8c-4.2-2.2-11.2-4.3-21-6.4c-4-0.8-6.5-1.7-7.5-2.7c-1.1-0.9-1.6-2-1.6-3.1
	c0-1.6,0.7-2.9,2-4c1.3-1.1,3.3-1.7,5.9-1.7c3.2,0,5.6,0.7,7.4,2.2c1.8,1.5,3,3.9,3.5,7.1l21.1-1.2c-0.9-7.5-3.8-13-8.7-16.4
	c-4.9-3.4-11.9-5.2-21.2-5.2c-7.5,0-13.5,0.9-17.8,2.8c-4.3,1.9-7.6,4.5-9.7,7.8c-2.2,3.3-3.2,6.8-3.2,10.6c0,5.7,2.1,10.3,6.3,14
	c4.2,3.7,11.2,6.6,21,8.8c6,1.3,9.8,2.7,11.5,4.2c1.6,1.5,2.5,3.2,2.5,5c0,2-0.9,3.7-2.6,5.2c-1.7,1.5-4.2,2.2-7.4,2.2
	c-4.3,0-7.6-1.5-9.9-4.4c-1.4-1.8-2.4-4.4-2.8-7.9l-21.3,1.3C325.3,160.3,328,166.3,332.7,171z"/>
<path fill="#705823" d="M24.9,157.8c2.2,2.4,5.4,3.6,9.7,3.6c4.4,0,7.8-1.5,10.3-4.5c2.4-3,3.7-8.5,3.7-16.5c0-6.5-1-11.2-3.1-14.3
	c-2.7-4.1-6.6-6.1-11.7-6.1c-2.2,0-4.3,0.5-6.1,1.4c-1.8,0.9-3.3,2.2-4.6,4c-0.8,1-1.5,2.6-2.2,4.8l-19.8-4.4
	c2.5-7.6,6.4-13.3,11.6-17c5.2-3.7,12.4-5.5,21.5-5.5c11.7,0,20.7,3.2,27.1,9.7c6.4,6.4,9.6,15.6,9.6,27.6c0,9-1.8,16.4-5.4,22.1
	c-3.6,5.8-7.9,9.8-12.9,12.1c-5,2.3-11.4,3.4-19.3,3.4c-6.5,0-11.8-0.9-16-2.8c-4.2-1.9-7.7-4.7-10.6-8.4c-2.8-3.7-4.9-8.3-6.2-13.8
	l19.6-5.9C21.2,151.9,22.7,155.4,24.9,157.8z"/>
</svg>
